# xmcd
#
# Track frame offsets:
#	150
#	17875
#	43612
#	59650
#	75850
#	94825
#	114100
#	138525
#	153950
#	171950
#	195075
#	213800
#	234250
#	257100
#	278050
#	296475
#	317950
#
# Disc length: 4544
#
# Revision: 7
# Processed by: cddbd v1.5.1PL0 Copyright (c) Steve Scherf et al.
# Submitted via: CDex 1.51
# Normalized: r6:DSETVAR1,TSWAP
#
DISCID=e011be11
DTITLE=Various Artist - The Power of Love
DYEAR=1996
DGENRE=Pop
TTITLE0=Eric Clapton - Change The World
TTITLE1=Celine Dion - Power Of Love
TTITLE2=Linda Ronstadt and Aaron Neville - Don't Know Much
TTITLE3=Mariah Carey - Without You
TTITLE4=Berlin - Take My Breath Away
TTITLE5=Michael Bolton - How Am I Supposed To Live Without You
TTITLE6=Paul Young - Everytime You Go Away
TTITLE7=Phil Collins - Against All Odds
TTITLE8=Rod Stewart - Have I Told You Lately
TTITLE9=Chicago - Hard To Say I M Sorry
TTITLE10=Simply Red - Stars
TTITLE11=Bonnie Tyler - Total Ecllipse Of The Heart
TTITLE12=George Michael - Careless Whisper
TTITLE13=Bette Midler - From A Distance
TTITLE14=Dan Hill - Somethime When We Touch
TTITLE15=Roberta Flack - Killing Me Softly With His Song
TTITLE16=Foreigner - I Want To Know What Love Is
EXTD=YEAR: 1996
EXTT0=
EXTT1=
EXTT2=
EXTT3=
EXTT4=
EXTT5=
EXTT6=
EXTT7=
EXTT8=
EXTT9=
EXTT10=
EXTT11=
EXTT12=
EXTT13=
EXTT14=
EXTT15=
EXTT16=
PLAYORDER=
